<?xml version="1.0" encoding="UTF-8"?><svg version="1.1" width="1440px" height="1080px" viewBox="0 0 1440.0 1080.0" xmlns="http://www.w3.org/2000/svg" xmlns:xlink="http://www.w3.org/1999/xlink"><defs><clipPath id="i0"><path d="M1440,0 L1440,1080 L0,1080 L0,0 L1440,0 Z"></path></clipPath><clipPath id="i1"><path d="M391,0 L391,391 L0,391 L0,0 L391,0 Z"></path></clipPath><clipPath id="i2"><path d="M260.666667,0 C278.636385,0 293.25,14.6136243 293.25,32.5833333 L293.25,244.375 C293.25,262.344719 278.636385,276.958333 260.666667,276.958333 L195.5,276.958333 L146.625,325.833333 L97.75,276.958333 L32.5833333,276.958333 C14.6136243,276.958333 0,262.344719 0,244.375 L0,32.5833333 C0,14.6136243 14.6136243,0 32.5833333,0 L260.666667,0 Z M260.666667,32.5833333 L32.5833333,32.5833333 L32.5833333,244.375 L114.041667,244.375 L146.625,276.958333 L179.208333,244.375 L260.699263,244.375 L260.666667,32.5833333 Z M146.625,146.625 C182.613286,146.625 211.791667,172.887174 211.791667,205.275006 L211.791667,211.563584 L81.4583333,211.563584 L81.4583333,205.275006 C81.4583333,172.887174 110.636707,146.625 146.625,146.625 Z M146.625,65.1666667 C165.376709,65.1666667 179.208333,78.9820008 179.208333,97.75 C179.208333,116.517999 165.376709,130.333333 146.625,130.333333 C127.889582,130.333333 114.041667,116.517999 114.041667,97.75 C114.041667,78.9820008 127.889582,65.1666667 146.625,65.1666667 Z"></path></clipPath></defs><rect x="0px" y="0px" width="1440px" height="1080px" fill="#FFFFFF"></rect><g clip-path="url(#i0)"><g transform="translate(395.0 107.0)"><g clip-path="url(#i1)"><g transform="translate(48.875 32.58333333333334)"><g clip-path="url(#i2)"><polygon points="0,0 293.25,0 293.25,325.833333 0,325.833333 0,0" stroke="none" fill="#2E3846"></polygon></g></g></g></g><g transform="translate(98.0 498.0)"><g clip-path="url(#i1)"><g transform="translate(48.875 32.58333333333334)"><g clip-path="url(#i2)"><polygon points="0,0 293.25,0 293.25,325.833333 0,325.833333 0,0" stroke="none" fill="#2E3846"></polygon></g></g></g></g><g transform="translate(857.0 222.0)"><g clip-path="url(#i1)"><g transform="translate(48.875 32.58333333333334)"><g clip-path="url(#i2)"><polygon points="0,0 293.25,0 293.25,325.833333 0,325.833333 0,0" stroke="none" fill="#2E3846"></polygon></g></g></g></g><g transform="translate(525.0 613.0)"><g clip-path="url(#i1)"><g transform="translate(48.875 32.58333333333334)"><g clip-path="url(#i2)"><polygon points="0,0 293.25,0 293.25,325.833333 0,325.833333 0,0" stroke="none" fill="#2E3846"></polygon></g></g></g></g><g transform="translate(952.0 613.0)"><g clip-path="url(#i1)"><g transform="translate(48.875 32.58333333333334)"><g clip-path="url(#i2)"><polygon points="0,0 293.25,0 293.25,325.833333 0,325.833333 0,0" stroke="none" fill="#2E3846"></polygon></g></g></g></g></g></svg>