<?xml version="1.0" encoding="UTF-8"?><svg version="1.1" width="170px" height="215px" viewBox="0 0 170.0 215.0" xmlns="http://www.w3.org/2000/svg" xmlns:xlink="http://www.w3.org/1999/xlink"><defs><clipPath id="i0"><path d="M13.415,0 C23.451,13.133 28.917,29.449 28.817,46.064 C28.817,61.784 23.749,77.304 14.508,90.039 L0,78.996 C6.857,69.445 10.633,57.705 10.633,45.965 C10.732,34.026 6.956,22.186 0,12.436 L5.095,7.5 Z"></path></clipPath><clipPath id="i1"><path d="M63.9220115,0 C64.8160115,0 65.7110115,0.199 66.5060115,0.5969 C67.4000115,0.9949 68.0960115,1.4924 68.6920115,2.1888 C69.2880115,2.8852 69.6860115,3.6812 69.9840115,4.5766 C70.1820115,5.472 70.2820115,6.3674 70.1820115,7.2628 L70.0830115,24.4748 C75.7470115,22.7834 81.6100115,21.689 87.4730115,21.0921 L87.5720115,7.2628 C87.3730115,6.3674 87.4730115,5.472 87.7710115,4.5766 C87.9690115,3.7807 88.4660115,2.9847 89.0630115,2.2883 C89.6590115,1.5919 90.4540115,1.0944 91.2490115,0.6964 C92.0440115,0.2985 92.9380115,0.0995 93.8320115,0.0995 C94.7270115,0.0995 95.6210115,0.2985 96.4160115,0.6964 C97.3100115,1.0944 98.0060115,1.5919 98.6020115,2.2883 C99.1980115,2.9847 99.5960115,3.7807 99.8940115,4.6761 C100.093011,5.5715 100.192011,6.4669 100.093011,7.3623 L99.9930115,20.7936 C124.637011,21.5895 148.088011,31.8371 165.478011,49.447 L168.856011,52.8297 C170.446011,54.4216 170.347011,57.0083 168.757011,58.501 L144.312011,81.384 L120.960011,102.476 C124.041011,107.351 125.531011,113.022 125.332011,118.792 C125.034011,124.563 123.047011,130.134 119.569011,134.711 L168.359011,171.821 C169.353011,172.617 169.949011,173.811 169.949011,175.104 L169.949011,211.02 C169.949011,213.209 168.161011,215 165.974011,215 L94.9250115,214.702 C72.9650115,214.304 51.7000115,206.344 34.8069115,192.217 C17.9142115,178.089 6.28791147,158.589 1.91571147,136.999 C-2.45658853,115.41 0.72331147,92.925 10.7596115,73.325 C20.7959115,53.7251 37.2912115,38.105 57.3640115,29.1509 L57.6620115,7.1634 C57.4630115,6.2679 57.5620115,5.3725 57.8610115,4.4771 C58.0590115,3.6812 58.5560115,2.8852 59.1520115,2.1888 C59.7490115,1.4924 60.5440115,0.9949 61.3390115,0.5969 C62.1330115,0.199 63.0280115,0 63.9220115,0 Z M96.9130115,38.105 C87.5720115,38.105 78.3310115,39.5974 69.5860115,42.7811 L69.4870115,74.917 C69.6860115,75.812 69.5860115,76.708 69.2880115,77.603 C69.0890115,78.399 68.5920115,79.195 67.9960115,79.891 C67.4000115,80.588 66.6050115,81.085 65.8100115,81.483 C65.0150115,81.881 64.1210115,82.08 63.2270115,82.08 C62.3320115,82.08 61.4380115,81.881 60.6430115,81.483 C59.7490115,81.085 59.0530115,80.588 58.4570115,79.891 C57.8610115,79.195 57.4630115,78.399 57.1650115,77.503 C56.9660115,76.608 56.8670115,75.713 56.9660115,74.817 L57.0660115,48.6511 C41.8621115,57.4063 30.0372115,70.937 23.2801115,87.055 C16.6224115,103.172 15.3306115,121.18 19.8022115,138.093 C24.2738115,155.007 34.2107115,170.03 48.0230115,180.775 C61.8350115,191.421 78.8280115,197.291 96.3170115,197.39 L150.771011,197.589 C151.864011,197.589 152.758011,196.694 152.758011,195.599 L152.858011,182.864 C152.858011,182.267 152.560011,181.671 152.063011,181.273 L104.564011,145.157 C100.689011,146.351 96.5150115,146.65 92.4410115,146.053 C88.3670115,145.456 84.4920115,143.963 81.0140115,141.775 C77.6350115,139.486 74.6540115,136.601 72.4680115,133.119 C70.2820115,129.637 68.8910115,125.757 68.2940115,121.677 C67.6980115,117.598 67.9960115,113.519 69.1890115,109.54 C70.3810115,105.659 72.3690115,101.978 75.0510115,98.894 C77.7340115,95.81 81.0140115,93.323 84.7900115,91.631 C88.5660115,89.94 92.6400115,89.144 96.7140115,89.144 C100.391011,89.144 104.067011,89.94 107.446011,91.333 L144.610011,57.2073 C145.504011,56.3119 145.405011,54.919 144.411011,54.1231 C130.798011,43.776 114.104011,38.105 96.9130115,38.105 Z M96.8130115,106.555 C94.6270115,106.555 92.4410115,107.251 90.5530115,108.445 C88.6650115,109.739 87.2740115,111.43 86.3800115,113.519 C85.4850115,115.509 85.2870115,117.797 85.6840115,119.986 C86.0810115,122.175 87.1750115,124.165 88.7640115,125.757 C90.3540115,127.348 92.4410115,128.343 94.5280115,128.841 C96.6150115,129.338 98.9000115,129.139 100.987011,128.244 C103.074011,127.348 104.763011,125.956 106.055011,124.065 C107.247011,122.175 107.943011,119.986 107.943011,117.797 C107.943011,114.713 106.750011,111.927 104.763011,109.938 C102.676011,107.749 99.7940115,106.555 96.8130115,106.555 Z"></path></clipPath></defs><g transform="translate(-1.1469703395050601e-05 0.0)"><g transform="translate(140.9330114697034 72.0)"><g clip-path="url(#i0)"><polygon points="0,0 28.8183482,0 28.8183482,90.039 0,90.039 0,0" stroke="none" fill="#000000"></polygon></g></g><g transform=""><g clip-path="url(#i1)"><polygon points="1.77635684e-15,0 170.000167,0 170.000167,215 1.77635684e-15,215 1.77635684e-15,0" stroke="none" fill="#000000"></polygon></g></g></g></svg>