<?xml version="1.0" encoding="UTF-8"?><svg version="1.1" width="1440px" height="1080px" viewBox="0 0 1440.0 1080.0" xmlns="http://www.w3.org/2000/svg" xmlns:xlink="http://www.w3.org/1999/xlink"><defs><clipPath id="i0"><path d="M1440,0 L1440,1080 L0,1080 L0,0 L1440,0 Z"></path></clipPath><clipPath id="i1"><path d="M680,0 L680,680 L0,680 L0,0 L680,0 Z"></path></clipPath><clipPath id="i2"><path d="M226.666667,340 C257.962801,340 283.333333,365.370533 283.333333,396.666667 C283.333333,427.962801 257.962801,453.333333 226.666667,453.333333 C195.370533,453.333333 170,427.962801 170,396.666667 C170,365.370533 195.370533,340 226.666667,340 Z M56.6666667,340 C87.9628007,340 113.333333,365.370533 113.333333,396.666667 C113.333333,427.962801 87.9628007,453.333333 56.6666667,453.333333 C25.3705327,453.333333 0,427.962801 0,396.666667 C0,365.370533 25.3705327,340 56.6666667,340 Z M396.666667,340 C427.962801,340 453.333333,365.370533 453.333333,396.666667 C453.333333,427.962801 427.962801,453.333333 396.666667,453.333333 C365.370533,453.333333 340,427.962801 340,396.666667 C340,365.370533 365.370533,340 396.666667,340 Z M56.6666667,170 C87.9628007,170 113.333333,195.370533 113.333333,226.666667 C113.333333,257.962801 87.9628007,283.333333 56.6666667,283.333333 C25.3705327,283.333333 0,257.962801 0,226.666667 C0,195.370533 25.3705327,170 56.6666667,170 Z M226.666667,170 C257.962801,170 283.333333,195.370533 283.333333,226.666667 C283.333333,257.962801 257.962801,283.333333 226.666667,283.333333 C195.370533,283.333333 170,257.962801 170,226.666667 C170,195.370533 195.370533,170 226.666667,170 Z M396.666667,170 C427.962801,170 453.333333,195.370533 453.333333,226.666667 C453.333333,257.962801 427.962801,283.333333 396.666667,283.333333 C365.370533,283.333333 340,257.962801 340,226.666667 C340,195.370533 365.370533,170 396.666667,170 Z M56.6666667,0 C87.9628007,0 113.333333,25.3705327 113.333333,56.6666667 C113.333333,87.9628007 87.9628007,113.333333 56.6666667,113.333333 C25.3705327,113.333333 0,87.9628007 0,56.6666667 C0,25.3705327 25.3705327,0 56.6666667,0 Z M396.666667,0 C427.962801,0 453.333333,25.3705327 453.333333,56.6666667 C453.333333,87.9628007 427.962801,113.333333 396.666667,113.333333 C365.370533,113.333333 340,87.9628007 340,56.6666667 C340,25.3705327 365.370533,0 396.666667,0 Z M226.666667,0 C257.962801,0 283.333333,25.3705327 283.333333,56.6666667 C283.333333,87.9628007 257.962801,113.333333 226.666667,113.333333 C195.370533,113.333333 170,87.9628007 170,56.6666667 C170,25.3705327 195.370533,0 226.666667,0 Z"></path></clipPath></defs><rect x="0px" y="0px" width="1440px" height="1080px" fill="#FFFFFF"></rect><g clip-path="url(#i0)"><g transform="translate(380.0 200.0)"><g clip-path="url(#i1)"><g transform="translate(113.33333333333334 113.33333333333334)"><g clip-path="url(#i2)"><polygon points="0,0 453.333333,0 453.333333,453.333333 0,453.333333 0,0" stroke="none" fill="#2E3846"></polygon></g></g></g></g></g></svg>