<?xml version="1.0" encoding="UTF-8"?><svg version="1.1" width="1440px" height="1080px" viewBox="0 0 1440.0 1080.0" xmlns="http://www.w3.org/2000/svg" xmlns:xlink="http://www.w3.org/1999/xlink"><defs><clipPath id="i0"><path d="M1440,0 L1440,1080 L0,1080 L0,0 L1440,0 Z"></path></clipPath><clipPath id="i1"><path d="M490,0 L490,490 L0,490 L0,0 L490,0 Z"></path></clipPath><clipPath id="i2"><path d="M224.583333,224.583333 C303.371249,224.583333 367.5,288.712084 367.5,367.5 L367.5,387.916667 L326.666667,387.916667 L326.666667,367.5 C326.666667,311.211251 280.872083,265.416667 224.583333,265.416667 L142.916667,265.416667 C86.6279173,265.416667 40.8333333,311.211251 40.8333333,367.5 L40.8333333,387.916667 L0,387.916667 L0,367.5 C0,288.712084 64.1083355,224.583333 142.916667,224.583333 Z M183.75,0 C240.038749,0 285.833333,45.794584 285.833333,102.083333 C285.833333,158.372083 240.038749,204.166667 183.75,204.166667 C127.461251,204.166667 81.6666667,158.372083 81.6666667,102.083333 C81.6666667,45.794584 127.461251,0 183.75,0 Z M183.75,40.8333333 C149.980832,40.8333333 122.5,68.3141658 122.5,102.083333 C122.5,135.852501 149.980832,163.333333 183.75,163.333333 C217.519168,163.333333 245,135.852501 245,102.083333 C245,68.3141658 217.519168,40.8333333 183.75,40.8333333 Z"></path></clipPath><clipPath id="i3"><path d="M220,0 L220,220 L0,220 L0,0 L220,0 Z"></path></clipPath><clipPath id="i4"><path d="M165,0 C175.110834,0 183.333333,8.22249959 183.333333,18.3333333 L183.333333,128.333333 C183.333333,138.444167 175.110834,146.666667 165,146.666667 L18.3333333,146.666667 C8.22249959,146.666667 0,138.444167 0,128.333333 L0,18.3333333 C0,8.22249959 8.22249959,0 18.3333333,0 Z M165,18.3333333 L18.3333333,18.3333333 L18.3333333,128.333333 L165.018341,128.333333 L165,18.3333333 Z M123.75,64.1666667 C136.406527,64.1666667 146.666667,74.4268075 146.666667,87.0833333 C146.666667,99.7398603 136.406527,110 123.75,110 C111.093474,110 100.833333,99.7398603 100.833333,87.0833333 C100.833333,74.4268075 111.093474,64.1666667 123.75,64.1666667 Z M87.0833333,64.1666667 C92.2625,64.1666667 96.9925,65.9450009 100.833333,68.8600008 C95.2966669,73.0400008 91.6666667,79.6125 91.6666667,87.0833333 C91.6666667,94.5541666 95.2966669,101.126666 100.833333,105.306666 C96.9925,108.221666 92.2625,110 87.0833333,110 C74.4241663,110 64.1666667,99.7425004 64.1666667,87.0833333 C64.1666667,74.4241663 74.4241663,64.1666667 87.0833333,64.1666667 Z"></path></clipPath><clipPath id="i5"><path d="M165,0 C175.110834,0 183.333333,8.22249959 183.333333,18.3333333 L183.333333,128.333333 C183.333333,138.444167 175.110834,146.666667 165,146.666667 L18.3333333,146.666667 C8.22249959,146.666667 0,138.444167 0,128.333333 L0,18.3333333 C0,8.22249959 8.22249959,0 18.3333333,0 Z M165.009162,73.3333333 L18.3333333,73.3333333 L18.3333333,128.333333 L165.018341,128.333333 L165.009162,73.3333333 Z M100.833333,91.6666667 L100.833333,110 L36.6666667,110 L36.6666667,91.6666667 L100.833333,91.6666667 Z M165,18.3333333 L18.3333333,18.3333333 L18.3333333,36.6666667 L165,36.6666667 L165,18.3333333 Z"></path></clipPath></defs><rect x="0px" y="0px" width="1440px" height="1080px" fill="#FFFFFF"></rect><g clip-path="url(#i0)"><g transform="translate(73.0 295.0)"><g clip-path="url(#i1)"><g transform="translate(61.25 40.83333333333334)"><g clip-path="url(#i2)"><polygon points="0,0 367.5,0 367.5,387.916667 0,387.916667 0,0" stroke="none" fill="#000000"></polygon></g></g></g></g><g transform="translate(872.0 295.0)"><g clip-path="url(#i1)"><g transform="translate(61.25 40.83333333333334)"><g clip-path="url(#i2)"><polygon points="0,0 367.5,0 367.5,387.916667 0,387.916667 0,0" stroke="none" fill="#000000"></polygon></g></g></g></g><g transform="translate(610.0 228.0)"><g clip-path="url(#i3)"><g transform="translate(18.33333333333333 36.66666666666666)"><g clip-path="url(#i4)"><polygon points="0,0 183.333333,0 183.333333,146.666667 0,146.666667 0,0" stroke="none" fill="#000000"></polygon></g></g></g></g><g transform="translate(610.0 608.0)"><g clip-path="url(#i3)"><g transform="translate(18.33333333333333 36.66666666666666)"><g clip-path="url(#i5)"><polygon points="0,0 183.333333,0 183.333333,146.666667 0,146.666667 0,0" stroke="none" fill="#000000"></polygon></g></g></g></g></g></svg>