<?xml version="1.0" encoding="UTF-8"?><svg version="1.1" width="1440px" height="1080px" viewBox="0 0 1440.0 1080.0" xmlns="http://www.w3.org/2000/svg" xmlns:xlink="http://www.w3.org/1999/xlink"><defs><clipPath id="i0"><path d="M1440,0 L1440,1080 L0,1080 L0,0 L1440,0 Z"></path></clipPath><clipPath id="i1"><path d="M641,0 L641,641 L0,641 L0,0 L641,0 Z"></path></clipPath><clipPath id="i2"><path d="M213.666667,0 C329.500705,0 427.333333,54.3662975 427.333333,118.703709 L427.333333,415.462983 C427.333333,479.800395 329.500705,534.166667 213.666667,534.166667 C97.8326279,534.166667 0,479.800395 0,415.462983 L0,118.703709 C0,54.3662975 97.8326279,0 213.666667,0 Z M373.916667,344.448494 C334.415042,369.584004 276.778456,385.787043 213.666667,385.787043 C150.554877,385.787043 92.9182909,369.584004 53.4166667,344.448494 L53.4166667,415.462983 C55.2595416,430.093216 115.086209,474.814837 213.666667,474.814837 C312.247125,474.814837 372.073792,430.093203 373.916667,415.284915 Z M373.916667,196.068857 C334.415042,221.204367 276.778456,237.407419 213.666667,237.407419 C150.554877,237.407419 92.9182909,221.204367 53.4166667,196.068857 L53.4166667,267.083333 C55.2595416,281.713566 115.086209,326.435213 213.666667,326.435213 C312.247125,326.435213 372.073792,281.713579 373.916667,266.905291 Z M213.666667,59.3518547 C115.086209,59.3518547 55.2595416,104.073476 53.4166667,118.881765 C55.2595416,133.333941 115.086209,178.055564 213.666667,178.055564 C312.247125,178.055564 372.073792,133.333942 373.916667,118.525654 C372.073792,104.073478 312.247125,59.3518547 213.666667,59.3518547 Z"></path></clipPath></defs><rect x="0px" y="0px" width="1440px" height="1080px" fill="#FFFFFF"></rect><g clip-path="url(#i0)"><g transform="translate(400.0 220.0)"><g clip-path="url(#i1)"><g transform="translate(106.83333333333334 53.416666666666686)"><g clip-path="url(#i2)"><polygon points="0,0 427.333333,0 427.333333,534.166667 0,534.166667 0,0" stroke="none" fill="#000000"></polygon></g></g></g></g></g></svg>