<?xml version="1.0" encoding="UTF-8"?><svg version="1.1" width="1440px" height="1080px" viewBox="0 0 1440.0 1080.0" xmlns="http://www.w3.org/2000/svg" xmlns:xlink="http://www.w3.org/1999/xlink"><defs><clipPath id="i0"><path d="M1440,0 L1440,1080 L0,1080 L0,0 L1440,0 Z"></path></clipPath><clipPath id="i1"><path d="M490,0 L490,490 L0,490 L0,0 L490,0 Z"></path></clipPath><clipPath id="i2"><path d="M224.583333,224.583333 C303.371249,224.583333 367.5,288.712084 367.5,367.5 L367.5,387.916667 L326.666667,387.916667 L326.666667,367.5 C326.666667,311.211251 280.872083,265.416667 224.583333,265.416667 L142.916667,265.416667 C86.6279173,265.416667 40.8333333,311.211251 40.8333333,367.5 L40.8333333,387.916667 L0,387.916667 L0,367.5 C0,288.712084 64.1083355,224.583333 142.916667,224.583333 Z M183.75,0 C240.038749,0 285.833333,45.794584 285.833333,102.083333 C285.833333,158.372083 240.038749,204.166667 183.75,204.166667 C127.461251,204.166667 81.6666667,158.372083 81.6666667,102.083333 C81.6666667,45.794584 127.461251,0 183.75,0 Z M183.75,40.8333333 C149.980832,40.8333333 122.5,68.3141658 122.5,102.083333 C122.5,135.852501 149.980832,163.333333 183.75,163.333333 C217.519168,163.333333 245,135.852501 245,102.083333 C245,68.3141658 217.519168,40.8333333 183.75,40.8333333 Z"></path></clipPath><clipPath id="i3"><path d="M67,0 L86.690806,39.8979307 L130.720787,46.2958614 L98.8603933,77.3520693 L106.381612,121.204139 L67,100.5 L27.6183881,121.204139 L35.1396067,77.3520693 L3.27921341,46.2958614 L47.309194,39.8979307 L67,0 Z"></path></clipPath></defs><rect x="0px" y="0px" width="1440px" height="1080px" fill="#FFFFFF"></rect><g clip-path="url(#i0)"><g transform="translate(180.0 168.0)"><g transform="translate(296.0 255.0)"><g clip-path="url(#i1)"><g transform="translate(61.25 40.83333333333334)"><g clip-path="url(#i2)"><polygon points="0,0 367.5,0 367.5,387.916667 0,387.916667 0,0" stroke="none" fill="#2E3846"></polygon></g></g></g></g><g transform="translate(0.0 332.0)"><g clip-path="url(#i3)"><polygon points="3.27921341,0 130.720787,0 130.720787,121.204139 3.27921341,121.204139 3.27921341,0" stroke="none" fill="#2E3846"></polygon><polygon points="67,100.5 27.6183881,121.204139 35.1396067,77.3520693 3.27921341,46.2958614 47.309194,39.8979307 67,0 86.690806,39.8979307 130.720787,46.2958614 98.8603933,77.3520693 106.381612,121.204139 67,100.5 67,100.5" stroke="#2E3846" stroke-width="2" fill="none" stroke-miterlimit="5"></polygon></g></g><g transform="translate(785.0 110.0)"><g clip-path="url(#i3)"><polygon points="3.27921341,0 130.720787,0 130.720787,121.204139 3.27921341,121.204139 3.27921341,0" stroke="none" fill="#2E3846"></polygon><polygon points="67,100.5 27.6183881,121.204139 35.1396067,77.3520693 3.27921341,46.2958614 47.309194,39.8979307 67,0 86.690806,39.8979307 130.720787,46.2958614 98.8603933,77.3520693 106.381612,121.204139 67,100.5 67,100.5" stroke="#2E3846" stroke-width="2" fill="none" stroke-miterlimit="5"></polygon></g></g><g transform="translate(947.0 332.0)"><g clip-path="url(#i3)"><polygon points="67,100.5 27.6183881,121.204139 35.1396067,77.3520693 3.27921341,46.2958614 47.309194,39.8979307 67,0 86.690806,39.8979307 130.720787,46.2958614 98.8603933,77.3520693 106.381612,121.204139 67,100.5 67,100.5" stroke="#2E3846" stroke-width="26" fill="none" stroke-miterlimit="5"></polygon></g></g><g transform="translate(162.0 110.0)"><g clip-path="url(#i3)"><polygon points="3.27921341,0 130.720787,0 130.720787,121.204139 3.27921341,121.204139 3.27921341,0" stroke="none" fill="#2E3846"></polygon><polygon points="67,100.5 27.6183881,121.204139 35.1396067,77.3520693 3.27921341,46.2958614 47.309194,39.8979307 67,0 86.690806,39.8979307 130.720787,46.2958614 98.8603933,77.3520693 106.381612,121.204139 67,100.5 67,100.5" stroke="#2E3846" stroke-width="2" fill="none" stroke-miterlimit="5"></polygon></g></g><g transform="translate(474.0 0.0)"><g clip-path="url(#i3)"><polygon points="3.27921341,0 130.720787,0 130.720787,121.204139 3.27921341,121.204139 3.27921341,0" stroke="none" fill="#2E3846"></polygon><polygon points="67,100.5 27.6183881,121.204139 35.1396067,77.3520693 3.27921341,46.2958614 47.309194,39.8979307 67,0 86.690806,39.8979307 130.720787,46.2958614 98.8603933,77.3520693 106.381612,121.204139 67,100.5 67,100.5" stroke="#2E3846" stroke-width="2" fill="none" stroke-miterlimit="5"></polygon></g></g></g></g></svg>